<?xml version="1.0" encoding="UTF-8" standalone="no"?>
<!-- Created with Inkscape (http://www.inkscape.org/) -->

<svg
   xmlns:dc="http://purl.org/dc/elements/1.1/"
   xmlns:cc="http://creativecommons.org/ns#"
   xmlns:rdf="http://www.w3.org/1999/02/22-rdf-syntax-ns#"
   xmlns:svg="http://www.w3.org/2000/svg"
   xmlns="http://www.w3.org/2000/svg"
   xmlns:xlink="http://www.w3.org/1999/xlink"
   xmlns:sodipodi="http://sodipodi.sourceforge.net/DTD/sodipodi-0.dtd"
   xmlns:inkscape="http://www.inkscape.org/namespaces/inkscape"
   width="512"
   height="512"
   id="svg2"
   version="1.1"
   inkscape:version="0.48.4 r9939"
   sodipodi:docname="planet_ships.svg"
   inkscape:export-filename="C:\Users\cupe\rocket-scissor-spacegoo\assets\asteroid.png"
   inkscape:export-xdpi="90"
   inkscape:export-ydpi="90">
  <sodipodi:namedview
     id="base"
     pagecolor="#ffffff"
     bordercolor="#666666"
     borderopacity="1.0"
     inkscape:pageopacity="0.0"
     inkscape:pageshadow="2"
     inkscape:zoom="0.62162861"
     inkscape:cx="-126.9074"
     inkscape:cy="289.16642"
     inkscape:document-units="px"
     inkscape:current-layer="layer1"
     showgrid="false"
     inkscape:window-width="1440"
     inkscape:window-height="837"
     inkscape:window-x="-8"
     inkscape:window-y="-8"
     inkscape:window-maximized="1"
     fit-margin-top="0"
     fit-margin-left="0"
     fit-margin-right="0"
     fit-margin-bottom="0" />
  <defs
     id="defs4">
    <linearGradient
       id="linearGradient3772">
      <stop
         id="stop3774"
         offset="0"
         style="stop-color:#ffffff;stop-opacity:0.18790497;" />
      <stop
         style="stop-color:#ffffff;stop-opacity:0.44708425;"
         offset="0.49852562"
         id="stop3780" />
      <stop
         id="stop3782"
         offset="0.85030782"
         style="stop-color:#6b9cff;stop-opacity:1;" />
      <stop
         id="stop3776"
         offset="1"
         style="stop-color:#0c25ff;stop-opacity:0;" />
    </linearGradient>
    <radialGradient
       gradientTransform="matrix(0.02168056,0.99730494,-0.99976377,0.02173484,718.50827,-0.56400342)"
       gradientUnits="userSpaceOnUse"
       r="181.50453"
       fy="366.41464"
       fx="359.98486"
       cy="366.41464"
       cx="359.98486"
       id="radialGradient3778"
       xlink:href="#linearGradient3772"
       inkscape:collect="always" />
    <radialGradient
       gradientTransform="matrix(0.02168056,0.99730494,-0.99976377,0.02173484,718.50827,-0.56400342)"
       gradientUnits="userSpaceOnUse"
       r="181.50453"
       fy="366.41464"
       fx="359.98486"
       cy="366.41464"
       cx="359.98486"
       id="radialGradient3778-1"
       xlink:href="#linearGradient3772-2"
       inkscape:collect="always" />
    <linearGradient
       id="linearGradient3772-2">
      <stop
         id="stop3774-6"
         offset="0"
         style="stop-color:#ffffff;stop-opacity:0.18790497;" />
      <stop
         style="stop-color:#ffffff;stop-opacity:0.44708425;"
         offset="0.49852562"
         id="stop3780-0" />
      <stop
         id="stop3782-5"
         offset="0.85030782"
         style="stop-color:#6b9cff;stop-opacity:1;" />
      <stop
         id="stop3776-4"
         offset="1"
         style="stop-color:#0c25ff;stop-opacity:0;" />
    </linearGradient>
  </defs>
  <metadata
     id="metadata7">
    <rdf:RDF>
      <cc:Work
         rdf:about="">
        <dc:format>image/svg+xml</dc:format>
        <dc:type
           rdf:resource="http://purl.org/dc/dcmitype/StillImage" />
        <dc:title></dc:title>
      </cc:Work>
    </rdf:RDF>
  </metadata>
  <g
     transform="translate(0,-540.36218)"
     id="layer1"
     inkscape:groupmode="layer"
     inkscape:label="Layer 1">
    <rect
       y="540.36218"
       x="0"
       height="512"
       width="512"
       id="rect3756"
       style="fill:#000000;fill-opacity:1;stroke:none" />
    <path
       transform="matrix(1.2264015,0,0,1.2264015,-188.9236,345.60229)"
       d="m 543.45699,366.41467 c 0,100.24219 -81.26235,181.50453 -181.50454,181.50453 -100.24218,0 -181.50453,-81.26234 -181.50453,-181.50453 0,-100.24218 81.26235,-181.50453 181.50453,-181.50453 100.24219,0 181.50454,81.26235 181.50454,181.50453 z"
       sodipodi:ry="181.50453"
       sodipodi:rx="181.50453"
       sodipodi:cy="366.41467"
       sodipodi:cx="361.95245"
       id="path3760"
       style="fill:url(#radialGradient3778);fill-opacity:1;stroke:none;stroke-width:42;stroke-linecap:butt;stroke-linejoin:miter;stroke-miterlimit:4;stroke-opacity:1;stroke-dasharray:none"
       sodipodi:type="arc" />
    <path
       style="fill:none;stroke:#ffffff;stroke-width:11.43233202;stroke-miterlimit:4;stroke-opacity:1;stroke-dasharray:none"
       d="M 271.84375 36.625 C 257.90217 36.801242 246.07232 47.500312 244.8125 61.6875 C 244.75523 62.332372 244.7312 62.98737 244.71875 63.625 C 243.92327 63.667075 243.13663 63.729471 242.34375 63.78125 C 242.24647 63.07712 242.15374 62.362454 242 61.65625 C 238.76833 46.81138 224.09486 37.42457 209.25 40.65625 C 194.40515 43.88793 184.98708 58.53014 188.21875 73.375 C 188.35247 73.989245 188.51546 74.592361 188.6875 75.1875 C 187.94919 75.460596 187.20271 75.718081 186.46875 76 C 186.19291 75.413376 185.91492 74.824534 185.59375 74.25 C 178.18052 60.98883 161.41742 56.24301 148.15625 63.65625 C 134.89509 71.06947 130.14926 87.83259 137.5625 101.09375 C 137.89489 101.68835 138.25618 102.25249 138.625 102.8125 C 137.9938 103.29704 137.37496 103.78907 136.75 104.28125 C 136.23941 103.7208 135.72107 103.15079 135.15625 102.625 C 124.03616 92.27325 106.63299 92.91117 96.28125 104.03125 C 85.929509 115.15133 86.536165 132.55451 97.65625 142.90625 C 98.070347 143.29174 98.506657 143.64493 98.9375 144 C 98.478713 144.64595 98.013473 145.28566 97.5625 145.9375 C 97.00082 145.60707 96.436352 145.29449 95.84375 145 C 82.238463 138.23905 65.729703 143.76971 58.96875 157.375 C 52.2078 170.98028 57.738463 187.48905 71.34375 194.25 C 71.936176 194.5444 72.553854 194.81443 73.15625 195.0625 C 72.910929 195.81169 72.673743 196.55925 72.4375 197.3125 C 71.84774 197.17459 71.262391 197.06918 70.65625 196.96875 C 55.668025 194.48551 41.483242 204.60553 39 219.59375 C 36.516759 234.58197 46.668025 248.73551 61.65625 251.21875 C 62.358823 251.33515 63.05217 251.43826 63.75 251.5 C 63.737424 252.28252 63.723609 253.06207 63.71875 253.84375 C 63.065663 253.88831 62.408353 253.97038 61.75 254.0625 C 46.704042 256.16786 36.238387 270.04779 38.34375 285.09375 C 40.449112 300.1397 54.329042 310.63662 69.375 308.53125 C 70.037325 308.43857 70.699766 308.32499 71.34375 308.1875 C 71.565966 308.95086 71.768562 309.70937 72 310.46875 C 71.419449 310.69355 70.853697 310.92022 70.28125 311.1875 C 56.515252 317.61489 50.541358 333.984 56.96875 347.75 C 63.396139 361.51598 79.765252 367.45864 93.53125 361.03125 C 94.172347 360.73192 94.799521 360.40369 95.40625 360.0625 C 95.843079 360.7223 96.274051 361.3772 96.71875 362.03125 C 96.143935 362.48672 95.577326 362.96041 95.03125 363.46875 C 83.911166 373.8205 83.273254 391.22367 93.625 402.34375 C 103.97674 413.46383 121.37992 414.10175 132.5 403.75 C 132.91931 403.35966 133.32932 402.94093 133.71875 402.53125 C 134.3285 403.03169 134.94643 403.53826 135.5625 404.03125 C 135.20829 404.54716 134.85447 405.07829 134.53125 405.625 C 126.79951 418.70303 131.14072 435.58076 144.21875 443.3125 C 157.29677 451.04423 174.17451 446.70303 181.90625 433.625 C 182.25659 433.0324 182.57389 432.41947 182.875 431.8125 C 183.60319 432.1091 184.3299 432.39969 185.0625 432.6875 C 184.89396 433.23073 184.73042 433.78368 184.59375 434.34375 C 180.99211 449.10321 190.05304 463.99205 204.8125 467.59375 C 219.57196 471.19535 234.46085 462.13447 238.0625 447.375 C 238.24416 446.63057 238.3818 445.89985 238.5 445.15625 C 239.28025 445.22275 240.06082 445.28661 240.84375 445.34375 C 240.84325 445.93668 240.86822 446.55614 240.90625 447.15625 C 241.86708 462.31837 254.93162 473.80465 270.09375 472.84375 C 285.25588 471.88295 296.77334 458.81839 295.8125 443.65625 C 295.76674 442.93419 295.6621 442.23581 295.5625 441.53125 C 296.33349 441.36464 297.10747 441.17582 297.875 441 C 298.05361 441.58292 298.24896 442.17185 298.46875 442.75 C 303.86755 456.95096 319.73654 464.08628 333.9375 458.6875 C 348.13845 453.28871 355.30505 437.38846 349.90625 423.1875 C 349.64393 422.49749 349.34171 421.81227 349.03125 421.15625 C 349.71726 420.76818 350.41308 420.39632 351.09375 420 C 351.49837 420.591 351.91815 421.18275 352.375 421.75 C 361.90449 433.58231 379.19893 435.43574 391.03125 425.90625 C 402.86355 416.37677 404.74824 399.08231 395.21875 387.25 C 394.84658 386.78789 394.45764 386.33787 394.0625 385.90625 C 394.60518 385.33167 395.15191 384.76874 395.6875 384.1875 C 396.15873 384.5618 396.62333 384.93349 397.125 385.28125 C 409.61091 393.93668 426.75083 390.82966 435.40625 378.34375 C 444.06167 365.85784 440.95466 348.71793 428.46875 340.0625 C 427.88575 339.65835 427.28945 339.29061 426.6875 338.9375 C 427.04163 338.21785 427.40468 337.506 427.75 336.78125 C 428.44555 337.05109 429.14735 337.3148 429.875 337.53125 C 444.43694 341.86299 459.76201 333.59319 464.09375 319.03125 C 468.42548 304.46932 460.12444 289.14424 445.5625 284.8125 C 445.01404 284.64935 444.48748 284.50267 443.9375 284.375 C 444.05887 283.59811 444.16913 282.81124 444.28125 282.03125 C 444.81308 282.06867 445.36634 282.11817 445.90625 282.125 C 461.09757 282.31724 473.55776 270.16007 473.75 254.96875 C 473.93129 240.64222 463.12873 228.72046 449.15625 227.25 C 462.16647 222.00402 469.29879 207.62205 465.21875 193.90625 C 460.88702 179.34431 445.56194 171.07452 431 175.40625 C 430.44537 175.57124 429.91109 175.77254 429.375 175.96875 C 429.04235 175.23236 428.68541 174.51256 428.34375 173.78125 C 428.92689 173.45525 429.52688 173.12312 430.09375 172.75 C 442.78402 164.39706 446.29043 147.34652 437.9375 134.65625 C 429.58458 121.96598 412.53402 118.45957 399.84375 126.8125 C 399.2956 127.1733 398.7637 127.54527 398.25 127.9375 C 397.73131 127.35148 397.21324 126.76716 396.6875 126.1875 C 397.07163 125.78499 397.44848 125.36802 397.8125 124.9375 C 407.62193 113.33622 406.16378 95.96568 394.5625 86.15625 C 382.96123 76.34682 365.62193 77.80497 355.8125 89.40625 C 355.32158 89.986846 354.8409 90.579741 354.40625 91.1875 C 353.7361 90.77886 353.05056 90.369318 352.375 89.96875 C 352.67791 89.359773 352.98861 88.764762 353.25 88.125 C 358.99617 74.061 352.25149 57.99617 338.1875 52.25 C 324.12352 46.50383 308.05867 53.24851 302.3125 67.3125 C 302.07015 67.905664 301.85456 68.494411 301.65625 69.09375 C 300.89808 68.903559 300.13671 68.712384 299.375 68.53125 C 299.47977 67.88144 299.56587 67.228352 299.625 66.5625 C 300.96882 51.42951 289.78925 38.06257 274.65625 36.71875 C 273.71044 36.634762 272.77319 36.613251 271.84375 36.625 z "
       transform="translate(0,540.36218)"
       id="path3760-6" />
  </g>
</svg>
